Coordinates
version=1
nRows=16
nColumns=22
inDegrees=yes

Units are S.I. units (second, meters, Newtons, ...)
If the header above contains a line with 'inDegrees', this indicates whether rotational values are in degrees (yes) or radians (no).

endheader
time	pelvis_tilt	pelvis_list	pelvis_rotation	pelvis_tx	pelvis_ty	pelvis_tz	hip_flexion_r	hip_adduction_r	hip_rotation_r	knee_angle_r	ankle_angle_r	subtalar_angle_r	hip_flexion_l	hip_adduction_l	hip_rotation_l	knee_angle_l	ankle_angle_l	subtalar_angle_l	lumbar_extension	lumbar_bending	lumbar_rotation
      0.01000000	    -11.03928445	      2.38231602	    -33.59016751	     -0.98595812	      0.88318507	     -0.36099582	     10.98969935	      4.41915844	      3.12126631	     -3.23474241	      8.14507775	     -2.32716142	      9.07349708	     -5.33652098	     -5.45472161	     -6.70880230	     13.81789048	      2.32429737	      4.54509056	      1.72596996	     11.47415081
      0.02000000	    -11.03254112	      2.38018819	    -33.61683264	     -0.98596156	      0.88319932	     -0.36099498	     11.01034148	      4.42270200	      3.15073635	     -3.28761585	      8.15326075	     -2.33469089	      9.06199667	     -5.33675360	     -5.45081286	     -6.71160959	     13.80345508	      2.32835566	      4.53511997	      1.73595794	     11.48019288
      0.03000000	    -11.02518920	      2.38426768	    -33.65468497	     -0.98595646	      0.88320261	     -0.36098681	     11.04242793	      4.42199196	      3.17528936	     -3.35613516	      8.18426819	     -2.34686543	      9.05715798	     -5.33247858	     -5.48338254	     -6.72883295	     13.82028155	      2.32797074	      4.52893547	      1.74355127	     11.50193226
      0.04000000	    -11.02290558	      2.38716242	    -33.66738070	     -0.98587978	      0.88320544	     -0.36100444	     11.04302363	      4.41671713	      3.17581020	     -3.36160379	      8.18608155	     -2.34780115	      9.05372881	     -5.32513056	     -5.48308179	     -6.73636843	     13.82103696	      2.32789109	      4.53403081	      1.75867197	     11.50121937
      0.05000000	    -11.02279855	      2.39193549	    -33.71554995	     -0.98589799	      0.88319359	     -0.36100878	     11.10236625	      4.42291802	      3.20390293	     -3.46695034	      8.24623888	     -2.36318199	      9.06928505	     -5.32637241	     -5.54911970	     -6.78013937	     13.86302070	      2.31552922	      4.52862062	      1.77674684	     11.53652505
      0.06000000	    -11.02064800	      2.39425476	    -33.73215969	     -0.98583873	      0.88319806	     -0.36103852	     11.11864689	      4.41936294	      3.22009720	     -3.50168953	      8.24772325	     -2.36640936	      9.06904216	     -5.32010026	     -5.55477268	     -6.79357319	     13.86919445	      2.31236614	      4.52665933	      1.79685444	     11.51745921
      0.07000000	    -11.02163678	      2.39007061	    -33.74829199	     -0.98576909	      0.88320103	     -0.36107361	     11.13862481	      4.42305570	      3.22021080	     -3.54698080	      8.26597066	     -2.37038242	      9.06877803	     -5.32117724	     -5.57230761	     -6.80890242	     13.88464580	      2.30555849	      4.52217717	      1.82881218	     11.50720673
      0.08000000	    -11.02114500	      2.39247121	    -33.75316910	     -0.98564775	      0.88320587	     -0.36111343	     11.13727548	      4.41477441	      3.21861127	     -3.55178597	      8.26753236	     -2.37090870	      9.06485807	     -5.31114607	     -5.57280183	     -6.81412974	     13.88571259	      2.30515969	      4.52702279	      1.85332301	     11.50621305
      0.09000000	    -11.02505478	      2.37796482	    -33.75235171	     -0.98552158	      0.88321247	     -0.36116116	     11.14157917	      4.42388989	      3.19793070	     -3.58151053	      8.28741168	     -2.37168905	      9.05665138	     -5.31835628	     -5.59588532	     -6.81806588	     13.90380867	      2.29808264	      4.52153017	      1.90063472	     11.46634001
      0.10000000	    -11.02942070	      2.35714470	    -33.73665791	     -0.98536758	      0.88322312	     -0.36123398	     11.12948472	      4.43418220	      3.15082232	     -3.58733633	      8.30630347	     -2.37012616	      9.05223482	     -5.32797471	     -5.59747464	     -6.83247846	     13.92261628	      2.29062157	      4.51326558	      1.95340407	     11.43883753
      0.11000000	    -11.02943496	      2.35924863	    -33.73638668	     -0.98523251	      0.88322848	     -0.36128733	     11.12559371	      4.42373902	      3.14901098	     -3.58995851	      8.30556138	     -2.37010323	      9.04806940	     -5.31677206	     -5.59670842	     -6.83623796	     13.92337949	      2.29049018	      4.51696248	      1.98082409	     11.43580314
      0.12000000	    -11.03000018	      2.32103925	    -33.68955135	     -0.98504851	      0.88325778	     -0.36140611	     11.08242189	      4.43873091	      3.06878883	     -3.56369704	      8.30088593	     -2.35770884	      9.03592542	     -5.33433139	     -5.56417211	     -6.84985633	     13.94502284	      2.28094906	      4.49295724	      2.04800251	     11.35185520
      0.13000000	    -11.03128012	      2.32517602	    -33.68794599	     -0.98494720	      0.88325870	     -0.36149290	     11.08257626	      4.42638924	      3.06820420	     -3.56299147	      8.30038910	     -2.35758745	      9.03499711	     -5.32084308	     -5.56542025	     -6.84878074	     13.94559875	      2.28093433	      4.48993520	      2.07728176	     11.35040155
      0.14000000	    -11.03473813	      2.32377445	    -33.67225220	     -0.98482733	      0.88325571	     -0.36159280	     11.07309995	      4.41672496	      3.05234736	     -3.54825664	      8.29873928	     -2.35216745	      9.03030844	     -5.31150624	     -5.57254019	     -6.83481621	     13.95031210	      2.27738548	      4.48807278	      2.11282134	     11.30369941
      0.15000000	    -11.03605792	      2.32815415	    -33.67239595	     -0.98475278	      0.88325119	     -0.36169354	     11.07462029	      4.40412541	      3.05021104	     -3.54496380	      8.29871207	     -2.35185048	      9.03172158	     -5.29922826	     -5.57179299	     -6.83405027	     13.95053516	      2.27730273	      4.48106614	      2.14142655	     11.30360571
      0.16000000	    -11.04152432	      2.32830274	    -33.65615032	     -0.98463827	      0.88323967	     -0.36180144	     11.06537640	      4.39383033	      3.03461070	     -3.52475649	      8.29729642	     -2.34311696	      9.03088375	     -5.28922448	     -5.56823455	     -6.82229361	     13.95492285	      2.27226826	      4.48070707	      2.17636149	     11.26661746
